<svg width="62" height="59" viewBox="0 0 62 59" fill="none" xmlns="http://www.w3.org/2000/svg">
<path d="M59.3334 29.5833V38.3667C59.3334 44.7139 59.3334 47.8876 58.0982 50.3119C57.0116 52.4444 55.2778 54.1782 53.1453 55.2647C50.721 56.5 47.5473 56.5 41.2001 56.5H20.8001C14.4528 56.5 11.2792 56.5 8.85486 55.2647C6.72235 54.1782 4.98857 52.4444 3.90201 50.3119C2.66675 47.8876 2.66675 44.7139 2.66675 38.3667V23.6333C2.66675 17.2861 2.66675 14.1124 3.90201 11.6881C4.98857 9.55561 6.72235 7.82183 8.85486 6.73526C11.2792 5.5 14.4528 5.50001 20.8001 5.50001H32.4167M50.8334 19.6667V2.66667M42.3334 11.1667H59.3334M42.3334 31C42.3334 37.2592 37.2593 42.3333 31.0001 42.3333C24.7409 42.3333 19.6667 37.2592 19.6667 31C19.6667 24.7408 24.7409 19.6667 31.0001 19.6667C37.2593 19.6667 42.3334 24.7408 42.3334 31Z" stroke="#FD7C84" stroke-width="4" stroke-linecap="round" stroke-linejoin="round"/>
</svg>
