<svg width="12" height="12" viewBox="0 0 12 12" fill="none" xmlns="http://www.w3.org/2000/svg">
<g clip-path="url(#clip0_348_8022)">
<path d="M8.00019 4.5V3C8.00019 1.89543 7.10475 1 6.00019 1C4.89562 1 4.00018 1.89543 4.00018 3V4.5M1.79619 5.17598L1.49619 8.37598C1.41089 9.28583 1.36824 9.74076 1.51921 10.0921C1.65183 10.4008 1.88424 10.656 2.17919 10.8169C2.51495 11 2.97187 11 3.88571 11H8.11466C9.0285 11 9.48542 11 9.82118 10.8169C10.1161 10.656 10.3485 10.4008 10.4812 10.0921C10.6321 9.74076 10.5895 9.28583 10.5042 8.37598L10.2042 5.17598C10.1322 4.40767 10.0961 4.02352 9.92336 3.73308C9.77118 3.47729 9.54635 3.27256 9.27748 3.14492C8.97218 3 8.58634 3 7.81466 3L4.18571 3C3.41403 3 3.02819 3 2.72289 3.14492C2.45402 3.27255 2.22919 3.47729 2.07702 3.73308C1.90423 4.02352 1.86822 4.40767 1.79619 5.17598Z" stroke="#FD7C84" stroke-linecap="round" stroke-linejoin="round"/>
</g>
<defs>
<clipPath id="clip0_348_8022">
<rect width="12" height="12" fill="white"/>
</clipPath>
</defs>
</svg>
