<svg width="22" height="22" viewBox="0 0 22 22" fill="none" xmlns="http://www.w3.org/2000/svg">
<path d="M1.5 21L7.04927 18.8657C7.40421 18.7291 7.58168 18.6609 7.74772 18.5718C7.8952 18.4926 8.0358 18.4012 8.16804 18.2986C8.31692 18.1831 8.45137 18.0486 8.72028 17.7797L20 6.5C21.1046 5.39543 21.1046 3.60457 20 2.5C18.8955 1.39543 17.1046 1.39543 16 2.49999L4.72028 13.7797C4.45138 14.0486 4.31692 14.1831 4.20139 14.332C4.09877 14.4642 4.0074 14.6048 3.92823 14.7523C3.83911 14.9183 3.77085 15.0958 3.63433 15.4507L1.5 21ZM1.5 21L3.55812 15.649C3.7054 15.266 3.77903 15.0746 3.90534 14.9869C4.01572 14.9102 4.1523 14.8813 4.2843 14.9065C4.43533 14.9353 4.58038 15.0804 4.87048 15.3705L7.12957 17.6295C7.41967 17.9196 7.56472 18.0647 7.59356 18.2157C7.61877 18.3477 7.58979 18.4843 7.51314 18.5947C7.42545 18.721 7.23399 18.7946 6.85107 18.9419L1.5 21Z" stroke="#23292D" stroke-opacity="0.5" stroke-width="1.5" stroke-linecap="round" stroke-linejoin="round"/>
</svg>
