<?xml version="1.0" encoding="UTF-8" standalone="no"?>
<svg
   xmlns:dc="http://purl.org/dc/elements/1.1/"
   xmlns:cc="http://creativecommons.org/ns#"
   xmlns:rdf="http://www.w3.org/1999/02/22-rdf-syntax-ns#"
   xmlns:svg="http://www.w3.org/2000/svg"
   xmlns="http://www.w3.org/2000/svg"
   xmlns:sodipodi="http://sodipodi.sourceforge.net/DTD/sodipodi-0.dtd"
   xmlns:inkscape="http://www.inkscape.org/namespaces/inkscape"
   inkscape:version="1.0 (4035a4f, 2020-05-01)"
   sodipodi:docname="eye-on.svg"
   id="svg837"
   version="1.1"
   fill="none"
   viewBox="0 0 24 24"
   height="24"
   width="24">
  <metadata
     id="metadata843">
    <rdf:RDF>
      <cc:Work
         rdf:about="">
        <dc:format>image/svg+xml</dc:format>
        <dc:type
           rdf:resource="http://purl.org/dc/dcmitype/StillImage" />
      </cc:Work>
    </rdf:RDF>
  </metadata>
  <defs
     id="defs841" />
  <sodipodi:namedview
     inkscape:current-layer="svg837"
     inkscape:window-maximized="0"
     inkscape:window-y="25"
     inkscape:window-x="0"
     inkscape:cy="12"
     inkscape:cx="12"
     inkscape:zoom="27.791667"
     showgrid="false"
     id="namedview839"
     inkscape:window-height="847"
     inkscape:window-width="1440"
     inkscape:pageshadow="2"
     inkscape:pageopacity="0"
     guidetolerance="10"
     gridtolerance="10"
     objecttolerance="10"
     borderopacity="1"
     bordercolor="#666666"
     pagecolor="#ffffff" />
  <path
     style="stroke:#fd7c84;stroke-opacity:1"
     id="path833"
     stroke-linejoin="round"
     stroke-linecap="round"
     stroke-width="1.5"
     stroke="#23292D"
     d="M2.42012 12.7132C2.28394 12.4975 2.21584 12.3897 2.17772 12.2234C2.14909 12.0985 2.14909 11.9015 2.17772 11.7766C2.21584 11.6103 2.28394 11.5025 2.42012 11.2868C3.54553 9.50484 6.8954 5 12.0004 5C17.1054 5 20.4553 9.50484 21.5807 11.2868C21.7169 11.5025 21.785 11.6103 21.8231 11.7766C21.8517 11.9015 21.8517 12.0985 21.8231 12.2234C21.785 12.3897 21.7169 12.4975 21.5807 12.7132C20.4553 14.4952 17.1054 19 12.0004 19C6.8954 19 3.54553 14.4952 2.42012 12.7132Z" />
  <path
     style="stroke:#fd7c84;stroke-opacity:1"
     id="path835"
     stroke-linejoin="round"
     stroke-linecap="round"
     stroke-width="1.5"
     stroke="#23292D"
     d="M12.0004 15C13.6573 15 15.0004 13.6569 15.0004 12C15.0004 10.3431 13.6573 9 12.0004 9C10.3435 9 9.0004 10.3431 9.0004 12C9.0004 13.6569 10.3435 15 12.0004 15Z" />
</svg>
