<svg width="32" height="32" viewBox="0 0 32 32" fill="none" xmlns="http://www.w3.org/2000/svg">
<rect width="32" height="32" rx="16" fill="#FD7C84"/>
<path d="M16.6667 12.6667L15.923 11.1793C15.709 10.7512 15.602 10.5372 15.4423 10.3808C15.3011 10.2425 15.1309 10.1373 14.9441 10.0729C14.7328 10 14.4935 10 14.0149 10H11.4667C10.72 10 10.3466 10 10.0614 10.1453C9.8105 10.2732 9.60653 10.4771 9.4787 10.728C9.33337 11.0132 9.33337 11.3866 9.33337 12.1333V12.6667M9.33337 12.6667H19.4667C20.5868 12.6667 21.1469 12.6667 21.5747 12.8847C21.951 13.0764 22.257 13.3824 22.4487 13.7587C22.6667 14.1865 22.6667 14.7466 22.6667 15.8667V18.8C22.6667 19.9201 22.6667 20.4802 22.4487 20.908C22.257 21.2843 21.951 21.5903 21.5747 21.782C21.1469 22 20.5868 22 19.4667 22H12.5334C11.4133 22 10.8532 22 10.4254 21.782C10.0491 21.5903 9.74311 21.2843 9.55136 20.908C9.33337 20.4802 9.33337 19.9201 9.33337 18.8V12.6667Z" stroke="white" stroke-width="1.5" stroke-linecap="round" stroke-linejoin="round"/>
</svg>
