<svg width="12" height="12" viewBox="0 0 12 12" fill="none" xmlns="http://www.w3.org/2000/svg">
<path d="M1.24977 4.5H10.7498M4.99977 1.5L3.99977 4.5L5.99977 10.25L7.99977 4.5L6.99977 1.5M6.30706 10.1313L10.7864 4.75607C10.8623 4.66498 10.9002 4.61943 10.9148 4.56858C10.9275 4.52375 10.9275 4.47624 10.9148 4.43142C10.9002 4.38057 10.8623 4.33502 10.7864 4.24393L8.61971 1.64393C8.57562 1.59102 8.55358 1.56457 8.52655 1.54555C8.50261 1.5287 8.4759 1.51619 8.44763 1.50858C8.41572 1.5 8.38128 1.5 8.31242 1.5H3.68712C3.61825 1.5 3.58382 1.5 3.55191 1.50858C3.52364 1.51619 3.49692 1.5287 3.47298 1.54555C3.44596 1.56457 3.42392 1.59102 3.37983 1.64393L1.21316 4.24392C1.13725 4.33502 1.09929 4.38057 1.08479 4.43142C1.072 4.47624 1.072 4.52375 1.08479 4.56858C1.09929 4.61943 1.13725 4.66497 1.21316 4.75607L5.69248 10.1313C5.79801 10.2579 5.85077 10.3212 5.91394 10.3443C5.96937 10.3646 6.03017 10.3646 6.08559 10.3443C6.14876 10.3212 6.20153 10.2579 6.30706 10.1313Z" stroke="white" stroke-linecap="round" stroke-linejoin="round"/>
</svg>
