<svg width="22" height="20" viewBox="0 0 22 20" fill="none" xmlns="http://www.w3.org/2000/svg">
<path d="M10.2827 1.95332C10.5131 1.48638 10.6284 1.25291 10.7848 1.17831C10.9209 1.11341 11.0791 1.11341 11.2152 1.17831C11.3717 1.25291 11.4869 1.48638 11.7174 1.95332L13.9041 6.38328C13.9721 6.52113 14.0061 6.59006 14.0558 6.64358C14.0999 6.69096 14.1527 6.72935 14.2113 6.75662C14.2776 6.78742 14.3536 6.79854 14.5057 6.82077L19.397 7.53571C19.9121 7.61099 20.1696 7.64863 20.2888 7.77444C20.3925 7.88389 20.4412 8.0343 20.4215 8.18377C20.3988 8.35558 20.2124 8.53718 19.8395 8.90038L16.3014 12.3464C16.1912 12.4538 16.136 12.5076 16.1004 12.5715C16.0689 12.628 16.0487 12.6902 16.0409 12.7545C16.0321 12.8271 16.0451 12.903 16.0711 13.0547L16.906 17.9221C16.994 18.4355 17.038 18.6922 16.9553 18.8445C16.8833 18.977 16.7554 19.07 16.6071 19.0975C16.4366 19.1291 16.2061 19.0078 15.7451 18.7654L11.3724 16.4658C11.2361 16.3942 11.168 16.3584 11.0962 16.3443C11.0327 16.3318 10.9673 16.3318 10.9038 16.3443C10.832 16.3584 10.7639 16.3942 10.6277 16.4658L6.25492 18.7654C5.79392 19.0078 5.56341 19.1291 5.39297 19.0975C5.24468 19.07 5.11672 18.977 5.04474 18.8445C4.962 18.6922 5.00603 18.4355 5.09407 17.9221L5.92889 13.0547C5.95491 12.903 5.96793 12.8271 5.95912 12.7545C5.95132 12.6902 5.93111 12.628 5.89961 12.5715C5.86402 12.5076 5.80888 12.4538 5.69859 12.3464L2.16056 8.90038C1.78766 8.53718 1.60121 8.35558 1.57853 8.18377C1.55879 8.0343 1.60755 7.88389 1.71125 7.77444C1.83044 7.64863 2.08797 7.61099 2.60304 7.53571L7.49431 6.82077C7.64642 6.79854 7.72248 6.78742 7.78872 6.75662C7.84736 6.72935 7.90016 6.69096 7.94419 6.64358C7.99391 6.59006 8.02793 6.52113 8.09597 6.38328L10.2827 1.95332Z" stroke="#EED13E" stroke-width="1.5" stroke-linecap="round" stroke-linejoin="round"/>
</svg>
