<svg width="12" height="12" viewBox="0 0 12 12" fill="none" xmlns="http://www.w3.org/2000/svg">
<path d="M1.21006 6.35659C1.14197 6.24877 1.10792 6.19486 1.08886 6.11171C1.07455 6.04925 1.07455 5.95075 1.08886 5.88829C1.10792 5.80514 1.14197 5.75123 1.21006 5.64341C1.77276 4.75242 3.4477 2.5 6.0002 2.5C8.5527 2.5 10.2276 4.75242 10.7903 5.64341C10.8584 5.75123 10.8925 5.80514 10.9115 5.88829C10.9259 5.95075 10.9259 6.04925 10.9115 6.11171C10.8925 6.19486 10.8584 6.24877 10.7903 6.35659C10.2276 7.24758 8.5527 9.5 6.0002 9.5C3.4477 9.5 1.77276 7.24758 1.21006 6.35659Z" stroke="#FD7C84" stroke-linecap="round" stroke-linejoin="round"/>
<path d="M6.0002 7.5C6.82863 7.5 7.5002 6.82843 7.5002 6C7.5002 5.17157 6.82863 4.5 6.0002 4.5C5.17177 4.5 4.5002 5.17157 4.5002 6C4.5002 6.82843 5.17177 7.5 6.0002 7.5Z" stroke="#FD7C84" stroke-linecap="round" stroke-linejoin="round"/>
</svg>
